<svg xmlns="http://www.w3.org/2000/svg" width="519.967" height="619.661" viewBox="0 0 519.967 619.661">
	<title>ComicA11y logo</title>
	<g id="type">
		<path d="M60.997 24.439v-.133C60.997 10.684 71.487 0 85.652 0c9.555 0 15.703 4.007 19.845 9.749l-9.755 7.545c-2.673-3.339-5.747-5.476-10.223-5.476-6.548 0-11.159 5.542-11.159 12.353v.134c0 7.011 4.61 12.486 11.159 12.486 4.877 0 7.751-2.271 10.557-5.676l9.755 6.944c-4.41 6.076-10.357 10.55-20.713 10.55-13.364.001-24.121-10.214-24.121-24.17zM109.771 24.439v-.133C109.771 10.884 120.596 0 135.028 0s25.124 10.75 25.124 24.172v.134c0 13.421-10.824 24.305-25.257 24.305-14.433-.001-25.124-10.751-25.124-24.172zm37.151 0v-.133c0-6.744-4.877-12.62-12.027-12.62-7.083 0-11.827 5.742-11.827 12.486v.134c0 6.744 4.878 12.62 11.96 12.62 7.15-.001 11.894-5.743 11.894-12.487zM168.232.935h13.698l11.159 18.095L204.248.935h13.698v46.741H205.05V20.833l-11.96 18.296h-.267l-11.894-18.162v26.709h-12.696V.935zM227.83.935h13.029v46.741H227.83V.935zM249.143 24.439v-.133C249.143 10.684 259.634 0 273.799 0c9.556 0 15.702 4.007 19.845 9.749l-9.755 7.545c-2.673-3.339-5.746-5.476-10.224-5.476-6.548 0-11.158 5.542-11.158 12.353v.134c0 7.011 4.61 12.486 11.158 12.486 4.878 0 7.751-2.271 10.558-5.676l9.756 6.944c-4.41 6.076-10.357 10.55-20.714 10.55-13.364.001-24.122-10.214-24.122-24.17z"/>
		<path fill="#3156e1" d="M316.626.601h12.495l19.912 47.075h-13.898l-3.407-8.347h-18.041l-3.341 8.347h-13.631L316.626.601zm11.359 28.646l-5.212-13.288-5.278 13.288h10.49zM361.657 12.687l-7.885 1.803L351.3 4.474 364.998.601h9.421v47.075h-12.762V12.687zM391.189 12.687l-7.885 1.803-2.473-10.016L394.529.601h9.421v47.075h-12.762V12.687zM427.469 30.182L409.695.935h14.767l9.622 17.027L443.772.935h14.5l-17.773 29.046v17.695h-13.03V30.182z"/>
	</g>
	<g id="frame">
		<path fill-rule="evenodd" clip-rule="evenodd" fill="#fff" d="M70.834 78.002h376.11v475.485H70.834z"/>
		<path d="M436.906 88.041v455.408H80.873V88.041h356.033m20.078-20.077H60.796v495.562h396.188V67.964z"/>
	</g>
	<path id="bubble" d="M509.928 326.621c0-108.323-77.394-204.435-249.945-204.435S10.039 218.297 10.039 326.621c0 93.923 58.201 163.292 186.148 180.08l76.803 102.921c-1.202-1.632-26.898-38.206 35.415-101.189 138.67-13.114 201.523-84.206 201.523-181.812z" fill="#fff" stroke="#000" stroke-width="20.0772" stroke-linecap="round" stroke-linejoin="round" stroke-miterlimit="100"/>
</svg>